<?xml version="1.0" encoding="UTF-8"?>
<svg version="1.1" xmlns="http://www.w3.org/2000/svg" width="225" height="225">
<path d="M0 0 C3.7585638 1.56906848 6.17847043 3.90681746 9.05981445 6.75341797 C9.54968338 7.23496338 10.03955231 7.71650879 10.54426575 8.21264648 C12.15605965 9.80041251 13.76015404 11.39567424 15.36328125 12.9921875 C16.48089639 14.10083539 17.59858853 15.20940566 18.71635437 16.31790161 C21.05429586 18.63937342 23.38782543 20.96518542 25.71899414 23.29345703 C28.71131899 26.28038039 31.71948906 29.25078862 34.73180866 32.21752739 C37.04357275 34.49960955 39.34406176 36.79280313 41.64153099 39.08926773 C42.74628925 40.18981104 43.85518249 41.2862193 44.96819496 42.37841415 C46.51988101 43.90335205 48.0550962 45.44317558 49.5871582 46.98779297 C50.46555862 47.86112274 51.34395905 48.73445251 52.24897766 49.63424683 C54 52 54 52 53.87469482 54.19308472 C52.73032438 56.55708687 51.28160323 58.05575747 49.40234375 59.890625 C48.32436523 60.95410156 48.32436523 60.95410156 47.22460938 62.0390625 C46.46986328 62.76867187 45.71511719 63.49828125 44.9375 64.25 C44.17888672 64.99507813 43.42027344 65.74015625 42.63867188 66.5078125 C40.76567793 68.34546694 38.88604389 70.17575724 37 72 C40.91250407 76.69886649 44.99889194 81.10694399 49.375 85.375 C51.27460767 87.22969969 53.14642641 89.09843745 55 91 C55 91.33 55 91.66 55 92 C51.31332998 92.20474001 47.62813257 92.32809831 43.9375 92.4375 C42.37999023 92.52547852 42.37999023 92.52547852 40.79101562 92.61523438 C33.14035999 92.78524894 33.14035999 92.78524894 29.69189453 90.41064453 C27.96806407 88.68681407 26.44039749 86.96429343 25 85 C18.77483405 90.17268049 13.15615322 95.80313167 7.52148438 101.60546875 C6.83763672 102.30027344 6.15378906 102.99507813 5.44921875 103.7109375 C4.52629028 104.65912354 4.52629028 104.65912354 3.5847168 105.62646484 C2 107 2 107 0 107 C-1.64574322 87.53718747 -1.64574322 87.53718747 2.15625 81.67578125 C4.875 79.375 4.875 79.375 7.6171875 77.5859375 C10.14038589 75.90656283 10.94018544 74.78962684 12 72 C10.71802734 71.04867187 10.71802734 71.04867187 9.41015625 70.078125 C4.0551598 65.70260317 -0.05476641 61.91466283 -1.08984375 54.8203125 C-1.46420805 49.95401338 -1.83996968 44.82951084 -1 40 C-0.34 39.34 0.32 38.68 1 38 C10.42307692 45.26923077 10.42307692 45.26923077 12 50 C12.66 50 13.32 50 14 50 C14 50.66 14 51.32 14 52 C14.66 52 15.32 52 16 52 C17.7265625 53.75 17.7265625 53.75 19.625 56 C20.57246094 57.11375 20.57246094 57.11375 21.5390625 58.25 C22.26222656 59.11625 22.26222656 59.11625 23 60 C26.32759923 58.44805246 28.48580485 56.69378051 31 54 C29.7085436 51.15205604 28.36406253 49.12517446 26.12670898 46.94726562 C25.2608744 46.09618225 25.2608744 46.09618225 24.37754822 45.22790527 C23.75666824 44.62675903 23.13578827 44.02561279 22.49609375 43.40625 C21.1854316 42.1160025 19.87488832 40.82563425 18.56445312 39.53515625 C16.49734246 37.51160775 14.42783453 35.49058503 12.35571289 33.47216797 C10.35443182 31.51910768 8.36239499 29.55697683 6.37109375 27.59375 C5.74818954 26.99260376 5.12528534 26.39145752 4.48350525 25.77209473 C3.90943436 25.20470581 3.33536346 24.63731689 2.74389648 24.05273438 C2.23696762 23.55849976 1.73003876 23.06426514 1.20774841 22.55505371 C-1.83896847 18.63220989 -1.15023692 13.54442244 -1.125 8.8125 C-1.12886719 8.07580078 -1.13273437 7.33910156 -1.13671875 6.58007812 C-1.12668491 1.12668491 -1.12668491 1.12668491 0 0 Z " fill="#ED5925" transform="translate(111,29)"/>
<path d="M0 0 C1.29248095 8.72753373 2.58838698 18.16711854 -2.90625 25.63916016 C-6.757499 30.07208973 -11.09758397 33.9404898 -15.5 37.8125 C-16.99825701 39.20517514 -18.49179816 40.6029417 -19.98046875 42.00585938 C-23.60199759 45.39833509 -27.28014718 48.71576825 -31 52 C-29.44805246 55.32759923 -27.69378051 57.48580485 -25 60 C-21.333884 58.46339272 -19.03646629 56.25410086 -16.26953125 53.4296875 C-15.38458984 52.53378906 -14.49964844 51.63789062 -13.58789062 50.71484375 C-12.21407227 49.30912109 -12.21407227 49.30912109 -10.8125 47.875 C-8.98883299 46.01506778 -7.16117431 44.1592539 -5.33203125 42.3046875 C-4.12123901 41.0669458 -4.12123901 41.0669458 -2.88598633 39.80419922 C-1 38 -1 38 0 38 C2.08641975 58.04032922 2.08641975 58.04032922 -2.671875 64.1328125 C-5.51463851 67.12636757 -8.63099583 69.62364884 -12 72 C-10.53438126 75.39687676 -8.63352456 77.60722686 -6 80.1875 C-5.29875 80.88230469 -4.5975 81.57710938 -3.875 82.29296875 C-2.10241668 84.06189325 -2.10241668 84.06189325 0 85 C0 92.26 0 99.52 0 107 C-3.84353532 105.07823234 -5.79333212 103.4400867 -8.765625 100.4296875 C-9.65507813 99.53378906 -10.54453125 98.63789062 -11.4609375 97.71484375 C-12.38132813 96.77769531 -13.30171875 95.84054688 -14.25 94.875 C-15.19484856 93.92011363 -16.14015633 92.96568141 -17.0859375 92.01171875 C-19.39518338 89.67890913 -21.69963203 87.34155914 -24 85 C-25.14626322 85.97866338 -26.29199788 86.95794587 -27.4375 87.9375 C-28.07558594 88.48277344 -28.71367188 89.02804688 -29.37109375 89.58984375 C-30.26991149 90.36795695 -31.15936528 91.15936528 -32 92 C-33.70772358 92.08713831 -35.41898649 92.10700007 -37.12890625 92.09765625 C-38.68061523 92.09282227 -38.68061523 92.09282227 -40.26367188 92.08789062 C-41.35228516 92.07951172 -42.44089844 92.07113281 -43.5625 92.0625 C-45.2012207 92.05573242 -45.2012207 92.05573242 -46.87304688 92.04882812 C-49.58208495 92.03699826 -52.29101599 92.02051543 -55 92 C-51.07711742 87.29658874 -46.98981304 82.85726049 -42.625 78.5625 C-42.07972656 78.02173828 -41.53445312 77.48097656 -40.97265625 76.92382812 C-39.65076536 75.61353277 -38.32572382 74.30641716 -37 73 C-39.82098754 69.56906921 -42.6606787 66.28539127 -45.8828125 63.2265625 C-46.38514404 62.74550049 -46.88747559 62.26443848 -47.4050293 61.76879883 C-48.41966744 60.80459355 -49.44454811 59.85104368 -50.47973633 58.90893555 C-51.90234375 57.55078125 -51.90234375 57.55078125 -54 55 C-53.83913899 50.84540675 -51.04217473 48.66789324 -48.23657227 45.86425781 C-47.74220673 45.36624161 -47.24784119 44.8682254 -46.73849487 44.3551178 C-45.10510837 42.71363559 -43.46112731 41.08324413 -41.81640625 39.453125 C-40.67868306 38.31592041 -39.5414778 37.17819746 -38.4047699 36.03997803 C-36.02282706 33.65812486 -33.63580294 31.28152238 -31.24487305 28.90869141 C-28.17498812 25.86153202 -25.11634023 22.80338231 -22.06117344 19.74147415 C-19.71532607 17.39229205 -17.36453225 15.04811306 -15.01209831 12.70552826 C-13.88200274 11.57929064 -12.75326308 10.45169079 -11.62588692 9.32273102 C-10.05307136 7.7495462 -8.47394263 6.18299596 -6.89282227 4.61816406 C-5.99427017 3.72421936 -5.09571808 2.83027466 -4.16993713 1.90924072 C-2 0 -2 0 0 0 Z " fill="#0B4C8D" transform="translate(107,29)"/>
<path d="M0 0 C7.92 0 15.84 0 24 0 C24 7.26 24 14.52 24 22 C25.32 22 26.64 22 28 22 C28 14.74 28 7.48 28 0 C35.59 0 43.18 0 51 0 C51 2.31 51 4.62 51 7 C46.05 7 41.1 7 36 7 C36 7.99 36 8.98 36 10 C40.95 10 45.9 10 51 10 C51.33 6.7 51.66 3.4 52 0 C54.31 0 56.62 0 59 0 C59 7.26 59 14.52 59 22 C62.96 22 66.92 22 71 22 C69.68 24.31 68.36 26.62 67 29 C56.77 29 46.54 29 36 29 C35.505 27.02 35.505 27.02 35 25 C34.62746094 25.64839844 34.25492188 26.29679687 33.87109375 26.96484375 C32 29 32 29 29.22265625 29.56640625 C20.69880797 29.55586997 20.69880797 29.55586997 17.25 26.8125 C15.96107045 23.91240852 15.64222196 22.13055784 16 19 C13.36 19 10.72 19 8 19 C8 22.3 8 25.6 8 29 C5.36 29 2.72 29 0 29 C0 19.43 0 9.86 0 0 Z M8 7 C8 8.65 8 10.3 8 12 C10.64 12 13.28 12 16 12 C16 10.35 16 8.7 16 7 C13.36 7 10.72 7 8 7 Z M51 13 C51 14.32 51 15.64 51 17 C48.36 17 45.72 17 43 17 C43 18.65 43 20.3 43 22 C45.64 22 48.28 22 51 22 C51.33 22.66 51.66 23.32 52 24 C52 20.37 52 16.74 52 13 C51.67 13 51.34 13 51 13 Z " fill="#E3582E" transform="translate(111,146)"/>
<path d="M0 0 C4.36053741 -0.06889088 8.71918585 -0.12861298 13.07983398 -0.16479492 C14.56297199 -0.17987768 16.04606544 -0.20034689 17.52905273 -0.22631836 C19.66140745 -0.26272616 21.79317235 -0.27973073 23.92578125 -0.29296875 C25.85031128 -0.31653442 25.85031128 -0.31653442 27.8137207 -0.34057617 C31 0 31 0 32.92382812 1.3359375 C34.59153819 3.91468337 34.28497993 6.16562203 34.1875 9.1875 C34.14689453 10.81751953 34.14689453 10.81751953 34.10546875 12.48046875 C34.07066406 13.31191406 34.03585938 14.14335937 34 15 C33.01 15.33 32.02 15.66 31 16 C32.65 18.97 34.3 21.94 36 25 C36.33 20.05 36.66 15.1 37 10 C47.56 10 58.12 10 69 10 C69 11.98 69 13.96 69 16 C66.03 16 63.06 16 60 16 C60 17.65 60 19.3 60 21 C62.97 21 65.94 21 69 21 C69 23.31 69 25.62 69 28 C55.47 28 41.94 28 28 28 C26.68 25.36 25.36 22.72 24 20 C23.67 22.64 23.34 25.28 23 28 C20.69 28 18.38 28 16 28 C16 24.7 16 21.4 16 18 C13.03 18 10.06 18 7 18 C7 21.3 7 24.6 7 28 C4.69 28 2.38 28 0 28 C0 18.76 0 9.52 0 0 Z M7 6 C7 7.65 7 9.3 7 11 C9.97 11 12.94 11 16 11 C16 9.35 16 7.7 16 6 C13.03 6 10.06 6 7 6 Z M23 6 C23 7.98 23 9.96 23 12 C24.32 12 25.64 12 27 12 C27 10.02 27 8.04 27 6 C25.68 6 24.36 6 23 6 Z M44 16 C44 17.65 44 19.3 44 21 C46.97 21 49.94 21 53 21 C53 19.35 53 17.7 53 16 C50.03 16 47.06 16 44 16 Z " fill="#104380" transform="translate(38,147)"/>
<path d="M0 0 C10.56 0 21.12 0 32 0 C32 1.98 32 3.96 32 6 C21.44 6 10.88 6 0 6 C0 4.02 0 2.04 0 0 Z " fill="#0E4787" transform="translate(75,147)"/>
<path d="M0 0 C2.31 0 4.62 0 7 0 C7 7.26 7 14.52 7 22 C8.32 22 9.64 22 11 22 C11 14.74 11 7.48 11 0 C13.31 0 15.62 0 18 0 C18 0.33 18 0.66 18 1 C16.35 1 14.7 1 13 1 C13.09539062 2.00160156 13.19078125 3.00320312 13.2890625 4.03515625 C13.40171077 5.37754819 13.51365218 6.71999957 13.625 8.0625 C13.74101562 9.37347656 13.85703125 10.68445313 13.9765625 12.03515625 C14.00153472 16.25962268 13.3471837 19.04586159 12 23 C12.66 23 13.32 23 14 23 C14.33 21.35 14.66 19.7 15 18 C15.33 18 15.66 18 16 18 C16 19.98 16 21.96 16 24 C16.66 24.33 17.32 24.66 18 25 C16.875 26.96484375 16.875 26.96484375 15 29 C12.1875 29.56640625 12.1875 29.56640625 9 29.5625 C7.4221875 29.59537109 7.4221875 29.59537109 5.8125 29.62890625 C3 29 3 29 1.125 26.46484375 C0.75375 25.65144531 0.3825 24.83804688 0 24 C1.65 23.34 3.3 22.68 5 22 C5.33 15.07 5.66 8.14 6 1 C4.02 1 2.04 1 0 1 C0 0.67 0 0.34 0 0 Z " fill="#E25D35" transform="translate(128,146)"/>
<path d="M0 0 C3.96 0 7.92 0 12 0 C12 1.65 12 3.3 12 5 C9.36 5 6.72 5 4 5 C4.33 6.98 4.66 8.96 5 11 C7.31 11.33 9.62 11.66 12 12 C11.67 12.99 11.34 13.98 11 15 C9.02 15.33 7.04 15.66 5 16 C4.67 18.97 4.34 21.94 4 25 C2.02 25 0.04 25 -2 25 C-2 24.34 -2 23.68 -2 23 C-1.34 23 -0.68 23 0 23 C0 15.41 0 7.82 0 0 Z " fill="#114A8C" transform="translate(40,148)"/>
<path d="M0 0 C4.29 0 8.58 0 13 0 C13.33 0.99 13.66 1.98 14 3 C13 4 13 4 11.15234375 4.09765625 C9.1015625 4.06510417 7.05078125 4.03255208 5 4 C5.09539062 4.60328125 5.19078125 5.2065625 5.2890625 5.828125 C5.39992188 6.62734375 5.51078125 7.4265625 5.625 8.25 C5.74101563 9.03890625 5.85703125 9.8278125 5.9765625 10.640625 C6.00365712 13.36814992 5.23303815 14.60865328 4 17 C3.76020238 19.36222232 3.76020238 19.36222232 3.875 21.75 C3.89304687 22.54921875 3.91109375 23.3484375 3.9296875 24.171875 C3.95289062 24.77515625 3.97609375 25.3784375 4 26 C2.68 26 1.36 26 0 26 C0 17.42 0 8.84 0 0 Z " fill="#F25726" transform="translate(113,147)"/>
<path d="M0 0 C3.9290625 -0.0309375 3.9290625 -0.0309375 7.9375 -0.0625 C8.7637085 -0.071604 9.58991699 -0.08070801 10.44116211 -0.09008789 C12.29433759 -0.09723945 14.14749308 -0.0502852 16 0 C17 1 17 1 17.09765625 3.94140625 C17.08605469 5.13636719 17.07445312 6.33132812 17.0625 7.5625 C17.05347656 8.76003906 17.04445312 9.95757812 17.03515625 11.19140625 C17.02355469 12.11824219 17.01195312 13.04507813 17 14 C13.7 13.67 10.4 13.34 7 13 C7 10.36 7 7.72 7 5 C9.64 4.67 12.28 4.34 15 4 C15 3.01 15 2.02 15 1 C10.71 1 6.42 1 2 1 C2 9.58 2 18.16 2 27 C3.32 27 4.64 27 6 27 C6 24.36 6 21.72 6 19 C6.66 19 7.32 19 8 19 C8 22.3 8 25.6 8 29 C5.36 29 2.72 29 0 29 C0 19.43 0 9.86 0 0 Z M8 7 C8 8.65 8 10.3 8 12 C10.64 12 13.28 12 16 12 C16 10.35 16 8.7 16 7 C13.36 7 10.72 7 8 7 Z " fill="#CB5D39" transform="translate(111,146)"/>
<path d="M0 0 C0 1.65 0 3.3 0 5 C-2.97 5 -5.94 5 -9 5 C-9 7.64 -9 10.28 -9 13 C-6.36 13 -3.72 13 -1 13 C-1 13.99 -1 14.98 -1 16 C-4.96 16 -8.92 16 -13 16 C-13.04241723 13.66705225 -13.04092937 11.33297433 -13 9 C-12.67 8.67 -12.34 8.34 -12 8 C-12.66 6.68 -13.32 5.36 -14 4 C-14.66 4 -15.32 4 -16 4 C-16 3.01 -16 2.02 -16 1 C-10.63904667 -0.12862175 -5.44693314 -0.09688221 0 0 Z " fill="#114A8E" transform="translate(106,157)"/>
<path d="M0 0 C1.85772162 0.08984301 3.71247985 0.24611861 5.5625 0.4375 C7.08037109 0.59025391 7.08037109 0.59025391 8.62890625 0.74609375 C9.80259766 0.87177734 9.80259766 0.87177734 11 1 C11 1.99 11 2.98 11 4 C8.69 4.33 6.38 4.66 4 5 C4 7.64 4 10.28 4 13 C6.31 13 8.62 13 11 13 C11 13.99 11 14.98 11 16 C9.18757948 16.02687279 7.37504767 16.04633715 5.5625 16.0625 C4.55316406 16.07410156 3.54382813 16.08570313 2.50390625 16.09765625 C0 16 0 16 -1 15 C-1.09909302 12.66839945 -1.12970504 10.33370058 -1.125 8 C-1.12757812 6.72125 -1.13015625 5.4425 -1.1328125 4.125 C-1 1 -1 1 0 0 Z " fill="#11498F" transform="translate(78,157)"/>
<path d="M0 0 C4.95 0 9.9 0 15 0 C15 2.31 15 4.62 15 7 C10.05 7 5.1 7 0 7 C0 6.34 0 5.68 0 5 C0.66 5 1.32 5 2 5 C1.34 4.34 0.68 3.68 0 3 C0 2.01 0 1.02 0 0 Z " fill="#D55930" transform="translate(147,146)"/>
<path d="M0 0 C1.32 0 2.64 0 4 0 C4 6.93 4 13.86 4 21 C2.68 21 1.36 21 0 21 C0 14.07 0 7.14 0 0 Z " fill="#F45825" transform="translate(129,148)"/>
<path d="M0 0 C1.32 0.33 2.64 0.66 4 1 C4 7.6 4 14.2 4 21 C2.68 21 1.36 21 0 21 C0 18.69 0 16.38 0 14 C-0.66 14 -1.32 14 -2 14 C-1.855625 13.07316406 -1.71125 12.14632812 -1.5625 11.19140625 C-1.376875 9.99386719 -1.19125 8.79632813 -1 7.5625 C-0.814375 6.36753906 -0.62875 5.17257813 -0.4375 3.94140625 C-0.12151322 1.97789499 -0.12151322 1.97789499 0 0 Z " fill="#F15826" transform="translate(165,148)"/>
<path d="M0 0 C0.33 0 0.66 0 1 0 C1 1.98 1 3.96 1 6 C-1.97 6 -4.94 6 -8 6 C-8 7.65 -8 9.3 -8 11 C-5.03 11 -2.06 11 1 11 C1 13.31 1 15.62 1 18 C-4.28 18 -9.56 18 -15 18 C-14.67 16.35 -14.34 14.7 -14 13 C-13.67 13.99 -13.34 14.98 -13 16 C-9.04 16 -5.08 16 -1 16 C-1 15.01 -1 14.02 -1 13 C-3.64 13 -6.28 13 -9 13 C-9 10.36 -9 7.72 -9 5 C-6.03 5 -3.06 5 0 5 C0 3.35 0 1.7 0 0 Z " fill="#1A406F" transform="translate(106,157)"/>
<path d="M0 0 C0.33 0 0.66 0 1 0 C1 7.26 1 14.52 1 22 C-2.2917475 20.35412625 -3.79705157 19.4470074 -6.234375 16.9609375 C-6.80800781 16.38085938 -7.38164063 15.80078125 -7.97265625 15.203125 C-8.55917969 14.59984375 -9.14570312 13.9965625 -9.75 13.375 C-10.35199219 12.76398438 -10.95398438 12.15296875 -11.57421875 11.5234375 C-13.05405305 10.02011376 -14.52764676 8.51065144 -16 7 C-14.68 6.01 -13.36 5.02 -12 4 C-11.67 4.99 -11.34 5.98 -11 7 C-8.88606701 11.01647268 -6.28684178 13.88614989 -3 17 C-2.67 17.33 -2.34 17.66 -2 18 C-1.93941406 17.03578125 -1.87882812 16.0715625 -1.81640625 15.078125 C-1.73261719 13.81484375 -1.64882812 12.5515625 -1.5625 11.25 C-1.48128906 9.99703125 -1.40007812 8.7440625 -1.31640625 7.453125 C-1.07484478 4.81682447 -0.75716066 2.51962706 0 0 Z " fill="#184674" transform="translate(106,114)"/>
<path d="M0 0 C0.33 0.66 0.66 1.32 1 2 C0.175 2.969375 -0.65 3.93875 -1.5 4.9375 C-4.10539608 7.47022001 -4.10539608 7.47022001 -4 9 C-1.39521117 9.0809313 1.20706653 9.14045434 3.8125 9.1875 C4.91948242 9.22520508 4.91948242 9.22520508 6.04882812 9.26367188 C10.32017538 9.38068437 10.32017538 9.38068437 14.01171875 7.48828125 C14.33785156 6.99714844 14.66398437 6.50601563 15 6 C15.66 6.33 16.32 6.66 17 7 C15.3586955 9.31092762 14.37739968 10.54425751 12 12 C8.0492315 12.63455605 4.17606365 12.47087302 0.1875 12.3125 C-1.42415039 12.27866211 -1.42415039 12.27866211 -3.06835938 12.24414062 C-5.7136685 12.18535598 -8.35611413 12.10323957 -11 12 C-10.06122074 10.8934059 -9.12079084 9.78821201 -8.1796875 8.68359375 C-7.39440674 7.76018188 -7.39440674 7.76018188 -6.59326172 6.81811523 C-4.4984209 4.42763415 -2.28027529 2.21320837 0 0 Z " fill="#133F6E" transform="translate(63,109)"/>
<path d="M0 0 C1.73868313 20.38806584 1.73868313 20.38806584 -2.2265625 25.6875 C-4.70194291 28.08617848 -7.10807547 30.13057736 -10 32 C-10 28.45595664 -9.39010515 27.89732095 -7.125 25.3125 C-6.59132813 24.68988281 -6.05765625 24.06726563 -5.5078125 23.42578125 C-4 22 -4 22 -2 22 C-1.97308315 19.54159395 -1.95320198 17.08348118 -1.9375 14.625 C-1.92912109 13.92632812 -1.92074219 13.22765625 -1.91210938 12.5078125 C-1.8164558 8.62704624 -1.8164558 8.62704624 -3 5 C-5.31 7.31 -7.62 9.62 -10 12 C-10.66 11.67 -11.32 11.34 -12 11 C-10.19047409 9.16364422 -8.37759362 7.33083792 -6.5625 5.5 C-6.04623047 4.97535156 -5.52996094 4.45070313 -4.99804688 3.91015625 C-1.11328125 0 -1.11328125 0 0 0 Z " fill="#184472" transform="translate(107,67)"/>
<path d="M0 0 C1.73868313 19.38230453 1.73868313 19.38230453 -2.2265625 24.62109375 C-4.70271652 27.02400941 -7.12609509 29.09603799 -10 31 C-10 30.01 -10 29.02 -10 28 C-8.88507806 27.08593867 -7.73232738 26.21765232 -6.5625 25.375 C-2.9395826 22.02234055 -2.47931107 19.15326276 -2.15014648 14.43408203 C-2.02144535 10.95162301 -1.97255836 7.48508858 -2 4 C-4.97 6.475 -4.97 6.475 -8 9 C-8.66 8.67 -9.32 8.34 -10 8 C-8.71451591 6.66070495 -7.42141845 5.32871357 -6.125 4 C-5.04605469 2.88625 -5.04605469 2.88625 -3.9453125 1.75 C-2 0 -2 0 0 0 Z " fill="#1B4774" transform="translate(107,29)"/>
<path d="M0 0 C2.97 1.98 2.97 1.98 6 4 C5.67 4.66 5.34 5.32 5 6 C4.34 5.67 3.68 5.34 3 5 C3 10.61 3 16.22 3 22 C4.32 22.66 5.64 23.32 7 24 C7.75 26.625 7.75 26.625 8 29 C6.85373678 28.02133662 5.70800212 27.04205413 4.5625 26.0625 C3.92441406 25.51722656 3.28632812 24.97195312 2.62890625 24.41015625 C0.01720757 22.14918929 0.01720757 22.14918929 -0.22119141 20.08227539 C-0.36145096 17.4092014 -0.49986534 14.73633322 -0.625 12.0625 C-0.6765625 11.12986328 -0.728125 10.19722656 -0.78125 9.23632812 C-0.82507813 8.34494141 -0.86890625 7.45355469 -0.9140625 6.53515625 C-0.9548291 5.714104 -0.9955957 4.89305176 -1.03759766 4.04711914 C-1 2 -1 2 0 0 Z " fill="#CD5A35" transform="translate(111,67)"/>
<path d="M0 0 C0.66 1.32 1.32 2.64 2 4 C2.99 3.34 3.98 2.68 5 2 C8.1875 1.875 8.1875 1.875 11 2 C11.33 2.66 11.66 3.32 12 4 C11.67 4.99 11.34 5.98 11 7 C6.71 7 2.42 7 -2 7 C-2.33 5.35 -2.66 3.7 -3 2 C-2.01 1.34 -1.02 0.68 0 0 Z " fill="#EB501F" transform="translate(151,167)"/>
<path d="M0 0 C0.33 0 0.66 0 1 0 C1.33 1.65 1.66 3.3 2 5 C4.31 5.33 6.62 5.66 9 6 C9.33 7.98 9.66 9.96 10 12 C7.03 12 4.06 12 1 12 C1 15.3 1 18.6 1 22 C-1.31 22 -3.62 22 -6 22 C-5.505 20.515 -5.505 20.515 -5 19 C-3.35 19.33 -1.7 19.66 0 20 C0 17.03 0 14.06 0 11 C1.134375 10.71125 2.26875 10.4225 3.4375 10.125 C4.613125 9.75375 5.78875 9.3825 7 9 C7.33 8.34 7.66 7.68 8 7 C6.2984375 7.0309375 6.2984375 7.0309375 4.5625 7.0625 C1 7 1 7 0 6 C-0.04080783 4.00041636 -0.04254356 1.99954746 0 0 Z " fill="#0B3A76" transform="translate(44,153)"/>
<path d="M0 0 C2.31 0 4.62 0 7 0 C7 7.26 7 14.52 7 22 C6.67 22 6.34 22 6 22 C6 15.73 6 9.46 6 3 C5.01 3 4.02 3 3 3 C2.95101562 3.71027344 2.90203125 4.42054688 2.8515625 5.15234375 C2.77679688 6.07144531 2.70203125 6.99054688 2.625 7.9375 C2.52058594 9.31228516 2.52058594 9.31228516 2.4140625 10.71484375 C2.27742187 11.46894531 2.14078125 12.22304687 2 13 C1.01 13.495 1.01 13.495 0 14 C0 9.38 0 4.76 0 0 Z " fill="#D6572F" transform="translate(163,146)"/>
<path d="M0 0 C2.31 0 4.62 0 7 0 C7 0.33 7 0.66 7 1 C5.35 1 3.7 1 2 1 C2.09539062 2.00160156 2.19078125 3.00320312 2.2890625 4.03515625 C2.40171077 5.37754819 2.51365218 6.71999957 2.625 8.0625 C2.74101562 9.37347656 2.85703125 10.68445313 2.9765625 12.03515625 C3.00153472 16.25962268 2.3471837 19.04586159 1 23 C-0.65 23 -2.3 23 -4 23 C-2.68 22.67 -1.36 22.34 0 22 C0 14.74 0 7.48 0 0 Z " fill="#D66240" transform="translate(139,146)"/>
<path d="M0 0 C0.66 0 1.32 0 2 0 C2.33 0.99 2.66 1.98 3 3 C2.67 3.66 2.34 4.32 2 5 C11.24 5 20.48 5 30 5 C30 3.35 30 1.7 30 0 C30.66 0 31.32 0 32 0 C32 1.98 32 3.96 32 6 C21.44 6 10.88 6 0 6 C0 4.02 0 2.04 0 0 Z " fill="#1F3F6E" transform="translate(75,147)"/>
<path d="M0 0 C0.99 0.33 1.98 0.66 3 1 C2.67 6.94 2.34 12.88 2 19 C2.66 19.33 3.32 19.66 4 20 C2.02 20.99 2.02 20.99 0 22 C0 14.74 0 7.48 0 0 Z " fill="#C6613A" transform="translate(111,114)"/>
<path d="M0 0 C0.0825 0.53625 0.165 1.0725 0.25 1.625 C1.27293806 4.86430387 3.00033698 7.27318679 5 10 C5.66 10.33 6.32 10.66 7 11 C7.72693904 12.97888961 8.39816251 14.97954558 9 17 C-0.31543624 9.18791946 -0.31543624 9.18791946 -3 6 C-2.91236229 2.93268023 -2.18647619 2.18647619 0 0 Z " fill="#0C4274" transform="translate(56,78)"/>
<path d="M0 0 C0.99 0 1.98 0 3 0 C3 0.99 3 1.98 3 3 C8.445 2.505 8.445 2.505 14 2 C14 1.34 14 0.68 14 0 C15.32 0.33 16.64 0.66 18 1 C16.875 2.96484375 16.875 2.96484375 15 5 C12.1875 5.56640625 12.1875 5.56640625 9 5.5625 C7.4221875 5.59537109 7.4221875 5.59537109 5.8125 5.62890625 C3 5 3 5 1.125 2.46484375 C0.75375 1.65144531 0.3825 0.83804688 0 0 Z " fill="#D25937" transform="translate(128,170)"/>
<path d="M0 0 C4.91935902 4.11619836 9.52647956 8.40410362 14 13 C11 13 11 13 8.5625 10.625 C7.2940625 9.325625 7.2940625 9.325625 6 8 C2.92678462 5.98320241 0.64626491 5.79742973 -3 6 C-1.125 1.125 -1.125 1.125 0 0 Z " fill="#D75E30" transform="translate(139,56)"/>
<path d="M0 0 C0.66 0.33 1.32 0.66 2 1 C0.68 2.32 -0.64 3.64 -2 5 C-0.02955353 9.59770843 2.87637693 12.25091795 7 15 C5.3125 15.8125 5.3125 15.8125 3 16 C0.4375 13.75 0.4375 13.75 -2 11 C-2.598125 10.401875 -3.19625 9.80375 -3.8125 9.1875 C-4.204375 8.795625 -4.59625 8.40375 -5 8 C-3.8141763 4.62496331 -2.72426311 2.35277269 0 0 Z " fill="#0F4376" transform="translate(78,76)"/>
<path d="M0 0 C2.97 0 5.94 0 9 0 C9 1.65 9 3.3 9 5 C6.36 5 3.72 5 1 5 C1.33 4.01 1.66 3.02 2 2 C1.34 1.34 0.68 0.68 0 0 Z " fill="#0A4082" transform="translate(97,157)"/>
<path d="M0 0 C0.33 0 0.66 0 1 0 C1.02698189 1.62490954 1.04638757 3.24994633 1.0625 4.875 C1.07410156 5.77992188 1.08570313 6.68484375 1.09765625 7.6171875 C1 10 1 10 0 12 C-0.66 12 -1.32 12 -2 12 C-2.33 9.69 -2.66 7.38 -3 5 C-2.34 4.67 -1.68 4.34 -1 4 C-0.34786708 1.97536745 -0.34786708 1.97536745 0 0 Z M-5 5 C-4.34 5.33 -3.68 5.66 -3 6 C-3.33 7.65 -3.66 9.3 -4 11 C-4.66 11 -5.32 11 -6 11 C-5.67 9.02 -5.34 7.04 -5 5 Z " fill="#F4411A" transform="translate(146,158)"/>
<path d="M0 0 C0.33 0 0.66 0 1 0 C1.33 3.3 1.66 6.6 2 10 C2.66 10 3.32 10 4 10 C4 10.66 4 11.32 4 12 C4.99 12 5.98 12 7 12 C7.33 13.65 7.66 15.3 8 17 C-0.05319823 10.73400887 -0.05319823 10.73400887 -1 6 C-0.625 2.6875 -0.625 2.6875 0 0 Z " fill="#DD5B30" transform="translate(111,40)"/>
<path d="M0 0 C0.66 1.32 1.32 2.64 2 4 C3.65 3.34 5.3 2.68 7 2 C6.67 2.99 6.34 3.98 6 5 C4.15234375 5.73046875 4.15234375 5.73046875 1.9375 6.1875 C1.20402344 6.34605469 0.47054687 6.50460938 -0.28515625 6.66796875 C-1.13400391 6.83232422 -1.13400391 6.83232422 -2 7 C-2.33 5.35 -2.66 3.7 -3 2 C-2.01 1.34 -1.02 0.68 0 0 Z " fill="#F3572A" transform="translate(151,167)"/>
<path d="M0 0 C3.63 0 7.26 0 11 0 C11 0.99 11 1.98 11 3 C9.54176788 3.0270043 8.08339325 3.04639787 6.625 3.0625 C5.81289062 3.07410156 5.00078125 3.08570313 4.1640625 3.09765625 C2 3 2 3 0 2 C0 1.34 0 0.68 0 0 Z " fill="#F4572A" transform="translate(150,148)"/>
<path d="M0 0 C2.31 0.33 4.62 0.66 7 1 C7 4.63 7 8.26 7 12 C6.67 12 6.34 12 6 12 C5.67 9.36 5.34 6.72 5 4 C4.01 4 3.02 4 2 4 C1.34 2.68 0.68 1.36 0 0 Z " fill="#0F437D" transform="translate(65,150)"/>
<path d="M0 0 C3.36591866 1.44253657 5.51047079 3.33264727 8 6 C7.67 6.99 7.34 7.98 7 9 C4.69 7.02 2.38 5.04 0 3 C-0.99 3.495 -0.99 3.495 -2 4 C-1.34 2.68 -0.68 1.36 0 0 Z " fill="#0B4273" transform="translate(82,111)"/>
<path d="M0 0 C0.33 0 0.66 0 1 0 C1 3.63 1 7.26 1 11 C-1.31 11 -3.62 11 -6 11 C-5.67 10.01 -5.34 9.02 -5 8 C-3.35 8.33 -1.7 8.66 0 9 C0 6.03 0 3.06 0 0 Z " fill="#143B6D" transform="translate(44,164)"/>
<path d="M0 0 C1.32 0.66 2.64 1.32 4 2 C3.69381595 5.67420866 3.24228216 6.78135513 0.4375 9.3125 C-0.366875 9.869375 -1.17125 10.42625 -2 11 C-2.66 10.67 -3.32 10.34 -4 10 C-2.02 7.69 -0.04 5.38 2 3 C1.34 2.01 0.68 1.02 0 0 Z " fill="#0D4070" transform="translate(68,98)"/>
<path d="M0 0 C1.14926266 0.95421808 2.29430541 1.91352045 3.4375 2.875 C4.07558594 3.40867187 4.71367187 3.94234375 5.37109375 4.4921875 C7 6 7 6 8 8 C6.02 7.34 4.04 6.68 2 6 C2 5.01 2 4.02 2 3 C1.01 3 0.02 3 -1 3 C-1.33 3.66 -1.66 4.32 -2 5 C-2 4.01 -2 3.02 -2 2 C-1.34 2 -0.68 2 0 2 C0 1.34 0 0.68 0 0 Z " fill="#D55E33" transform="translate(155,72)"/>
<path d="M0 0 C2.31 0.33 4.62 0.66 7 1 C5.35 2.65 3.7 4.3 2 6 C1.34 4.02 0.68 2.04 0 0 Z " fill="#10457E" transform="translate(82,66)"/>
<path d="M0 0 C2.33333333 2.33333333 4.66666667 4.66666667 7 7 C6.67 7.99 6.34 8.98 6 10 C4.98808455 9.09650406 3.99081074 8.17659153 3 7.25 C2.1646875 6.48429687 2.1646875 6.48429687 1.3125 5.703125 C0 4 0 4 0 0 Z " fill="#CE5529" transform="translate(112,86)"/>
<path d="M0 0 C0.99 0.33 1.98 0.66 3 1 C2.01 1.495 2.01 1.495 1 2 C1 4.31 1 6.62 1 9 C0.34 9 -0.32 9 -1 9 C-1.09765625 2.84765625 -1.09765625 2.84765625 -1 1 C-0.67 0.67 -0.34 0.34 0 0 Z " fill="#AB7362" transform="translate(111,29)"/>
<path d="M0 0 C4.29 0 8.58 0 13 0 C13.33 0.99 13.66 1.98 14 3 C13.01 3.495 13.01 3.495 12 4 C11.34 3.34 10.68 2.68 10 2 C7.56747339 1.53837573 7.56747339 1.53837573 4.875 1.375 C3.96492188 1.30023438 3.05484375 1.22546875 2.1171875 1.1484375 C1.41851562 1.09945312 0.71984375 1.05046875 0 1 C0 0.67 0 0.34 0 0 Z " fill="#E84F1E" transform="translate(113,147)"/>
<path d="M0 0 C0.99 0.99 1.98 1.98 3 3 C0.03 5.475 0.03 5.475 -3 8 C-2.37240135 5.07120629 -1.41377341 2.63904371 0 0 Z " fill="#DA572C" transform="translate(125,118)"/>
<path d="M0 0 C1.14926266 0.95421808 2.29430541 1.91352045 3.4375 2.875 C4.07558594 3.40867187 4.71367187 3.94234375 5.37109375 4.4921875 C7 6 7 6 8 8 C5.6875 7.8125 5.6875 7.8125 3 7 C0 2.96551724 0 2.96551724 0 0 Z " fill="#CD5A36" transform="translate(153,108)"/>
<path d="M0 0 C1.98 1.65 3.96 3.3 6 5 C4.02 5.99 4.02 5.99 2 7 C0 5 0 5 -0.125 2.375 C-0.08375 1.59125 -0.0425 0.8075 0 0 Z " fill="#D75C2B" transform="translate(147,102)"/>
<path d="M0 0 C0.33 1.32 0.66 2.64 1 4 C0.01 5.485 0.01 5.485 -1 7 C-4 7 -4 7 -6 6 C-4.02 4.02 -2.04 2.04 0 0 Z " fill="#D95B33" transform="translate(143,82)"/>
<path d="M0 0 C0 3 0 3 -1 6 C-4.0625 7.1875 -4.0625 7.1875 -7 8 C-6.02133662 6.85373678 -5.04205413 5.70800212 -4.0625 4.5625 C-3.51722656 3.92441406 -2.97195312 3.28632812 -2.41015625 2.62890625 C-1.63204305 1.73008851 -0.84063472 0.84063472 0 0 Z " fill="#0D4070" transform="translate(88,46)"/>
<path d="M0 0 C1.4606285 2.64738916 2 3.89448334 2 7 C0.02 7 -1.96 7 -4 7 C-4 6.34 -4 5.68 -4 5 C-2.68 5 -1.36 5 0 5 C0 3.35 0 1.7 0 0 Z " fill="#0A3E7F" transform="translate(65,154)"/>
<path d="M0 0 C0.33 0 0.66 0 1 0 C1.36923077 5.53846154 1.36923077 5.53846154 -0.5 7.875 C-1.2425 8.431875 -1.2425 8.431875 -2 9 C-3 6 -3 6 -1.5625 2.8125 C-1.046875 1.884375 -0.53125 0.95625 0 0 Z " fill="#E55B2B" transform="translate(145,152)"/>
</svg>
